<svg xmlns="http://www.w3.org/2000/svg" id="Laag_1" viewBox="0 0 561 24"><defs><style>      .st0 {        fill: #4cb4e7;      }    </style></defs><path class="st0" d="M2,10.5c-.8,0-1.5.7-1.5,1.5s.7,1.5,1.5,1.5v-3ZM559.6,13.1c.6-.6.6-1.5,0-2.1l-9.5-9.5c-.6-.6-1.5-.6-2.1,0-.6.6-.6,1.5,0,2.1l8.5,8.5-8.5,8.5c-.6.6-.6,1.5,0,2.1.6.6,1.5.6,2.1,0l9.5-9.5ZM6.8,13.5c.8,0,1.5-.7,1.5-1.5s-.7-1.5-1.5-1.5v3ZM16.9,10.5c-.8,0-1.5.7-1.5,1.5s.7,1.5,1.5,1.5v-3ZM26.7,13.5c.8,0,1.5-.7,1.5-1.5s-.7-1.5-1.5-1.5v3ZM36.7,10.5c-.8,0-1.5.7-1.5,1.5s.7,1.5,1.5,1.5v-3ZM46.7,13.5c.8,0,1.5-.7,1.5-1.5s-.7-1.5-1.5-1.5v3ZM56.6,10.5c-.8,0-1.5.7-1.5,1.5s.7,1.5,1.5,1.5v-3ZM66.5,13.5c.8,0,1.5-.7,1.5-1.5s-.7-1.5-1.5-1.5v3ZM76.4,10.5c-.8,0-1.5.7-1.5,1.5s.7,1.5,1.5,1.5v-3ZM86.5,13.5c.8,0,1.5-.7,1.5-1.5s-.7-1.5-1.5-1.5v3ZM96.3,10.5c-.8,0-1.5.7-1.5,1.5s.7,1.5,1.5,1.5v-3ZM106.3,13.5c.8,0,1.5-.7,1.5-1.5s-.7-1.5-1.5-1.5v3ZM116.2,10.5c-.8,0-1.5.7-1.5,1.5s.7,1.5,1.5,1.5v-3ZM126.1,13.5c.8,0,1.5-.7,1.5-1.5s-.7-1.5-1.5-1.5v3ZM136.1,10.5c-.8,0-1.5.7-1.5,1.5s.7,1.5,1.5,1.5v-3ZM146,13.5c.8,0,1.5-.7,1.5-1.5s-.7-1.5-1.5-1.5v3ZM156,10.5c-.8,0-1.5.7-1.5,1.5s.7,1.5,1.5,1.5v-3ZM165.9,13.5c.8,0,1.5-.7,1.5-1.5s-.7-1.5-1.5-1.5v3ZM175.9,10.5c-.8,0-1.5.7-1.5,1.5s.7,1.5,1.5,1.5v-3ZM185.8,13.5c.8,0,1.5-.7,1.5-1.5s-.7-1.5-1.5-1.5v3ZM195.8,10.5c-.8,0-1.5.7-1.5,1.5s.7,1.5,1.5,1.5v-3ZM205.7,13.5c.8,0,1.5-.7,1.5-1.5s-.7-1.5-1.5-1.5v3ZM215.6,10.5c-.8,0-1.5.7-1.5,1.5s.7,1.5,1.5,1.5v-3ZM225.6,13.5c.8,0,1.5-.7,1.5-1.5s-.7-1.5-1.5-1.5v3ZM235.5,10.5c-.8,0-1.5.7-1.5,1.5s.7,1.5,1.5,1.5v-3ZM245.5,13.5c.8,0,1.5-.7,1.5-1.5s-.7-1.5-1.5-1.5v3ZM255.4,10.5c-.8,0-1.5.7-1.5,1.5s.7,1.5,1.5,1.5v-3ZM265.4,13.5c.8,0,1.5-.7,1.5-1.5s-.7-1.5-1.5-1.5v3ZM275.3,10.5c-.8,0-1.5.7-1.5,1.5s.7,1.5,1.5,1.5v-3ZM285.3,13.5c.8,0,1.5-.7,1.5-1.5s-.7-1.5-1.5-1.5v3ZM295.2,10.5c-.8,0-1.5.7-1.5,1.5s.7,1.5,1.5,1.5v-3ZM305.1,13.5c.8,0,1.5-.7,1.5-1.5s-.7-1.5-1.5-1.5v3ZM315.1,10.5c-.8,0-1.5.7-1.5,1.5s.7,1.5,1.5,1.5v-3ZM325,13.5c.8,0,1.5-.7,1.5-1.5s-.7-1.5-1.5-1.5v3ZM335,10.5c-.8,0-1.5.7-1.5,1.5s.7,1.5,1.5,1.5v-3ZM344.9,13.5c.8,0,1.5-.7,1.5-1.5s-.7-1.5-1.5-1.5v3ZM354.8,10.5c-.8,0-1.5.7-1.5,1.5s.7,1.5,1.5,1.5v-3ZM364.8,13.5c.8,0,1.5-.7,1.5-1.5s-.7-1.5-1.5-1.5v3ZM374.7,10.5c-.8,0-1.5.7-1.5,1.5s.7,1.5,1.5,1.5v-3ZM384.7,13.5c.8,0,1.5-.7,1.5-1.5s-.7-1.5-1.5-1.5v3ZM394.6,10.5c-.8,0-1.5.7-1.5,1.5s.7,1.5,1.5,1.5v-3ZM404.5,13.5c.8,0,1.5-.7,1.5-1.5s-.7-1.5-1.5-1.5v3ZM414.5,10.5c-.8,0-1.5.7-1.5,1.5s.7,1.5,1.5,1.5v-3ZM424.4,13.5c.8,0,1.5-.7,1.5-1.5s-.7-1.5-1.5-1.5v3ZM434.4,10.5c-.8,0-1.5.7-1.5,1.5s.7,1.5,1.5,1.5v-3ZM444.3,13.5c.8,0,1.5-.7,1.5-1.5s-.7-1.5-1.5-1.5v3ZM454.3,10.5c-.8,0-1.5.7-1.5,1.5s.7,1.5,1.5,1.5v-3ZM464.2,13.5c.8,0,1.5-.7,1.5-1.5s-.7-1.5-1.5-1.5v3ZM474.1,10.5c-.8,0-1.5.7-1.5,1.5s.7,1.5,1.5,1.5v-3ZM484.1,13.5c.8,0,1.5-.7,1.5-1.5s-.7-1.5-1.5-1.5v3ZM494,10.5c-.8,0-1.5.7-1.5,1.5s.7,1.5,1.5,1.5v-3ZM504,13.5c.8,0,1.5-.7,1.5-1.5s-.7-1.5-1.5-1.5v3ZM513.9,10.5c-.8,0-1.5.7-1.5,1.5s.7,1.5,1.5,1.5v-3ZM523.9,13.5c.8,0,1.5-.7,1.5-1.5s-.7-1.5-1.5-1.5v3ZM533.8,10.5c-.8,0-1.5.7-1.5,1.5s.7,1.5,1.5,1.5v-3ZM543.7,13.5c.8,0,1.5-.7,1.5-1.5s-.7-1.5-1.5-1.5v3ZM553.7,10.5c-.8,0-1.5.7-1.5,1.5s.7,1.5,1.5,1.5v-3ZM2,12q0,1.5,0,1.5h4.8v-3H2s0,0,0,1.5ZM16.9,13.5h9.8v-3h-9.8v3ZM36.7,13.5h10v-3h-10v3ZM56.6,13.5h9.9v-3h-9.9v3ZM76.4,13.5h10v-3h-10v3ZM96.3,13.5h10v-3h-10v3ZM116.2,13.5h9.9v-3h-9.9v3ZM136.1,13.5h9.9v-3h-9.9v3ZM156,13.5h9.9v-3h-9.9v3ZM175.9,13.5h9.9v-3h-9.9v3ZM195.8,13.5h9.9v-3h-9.9v3ZM215.6,13.5h9.9v-3h-9.9v3ZM235.5,13.5h10v-3h-10v3ZM255.4,13.5h10v-3h-10v3ZM275.3,13.5h10v-3h-10v3ZM295.2,13.5h9.9v-3h-9.9v3ZM315.1,13.5h9.9v-3h-9.9v3ZM335,13.5h9.9v-3h-9.9v3ZM354.8,13.5h9.9v-3h-9.9v3ZM374.7,13.5h9.9v-3h-9.9v3ZM394.6,13.5h9.9v-3h-9.9v3ZM414.5,13.5h9.9v-3h-9.9v3ZM434.4,13.5h9.9v-3h-9.9v3ZM454.3,13.5h10v-3h-10v3ZM474.1,13.5h10v-3h-10v3ZM494,13.5h10v-3h-10v3ZM513.9,13.5h10v-3h-10v3ZM533.8,13.5h10v-3h-10v3ZM553.7,13.5h4.9v-3h-4.9v3Z"></path></svg>