<svg xmlns="http://www.w3.org/2000/svg" width="1728" height="2811" viewBox="0 0 1728 2811" fill="none"><g clip-path="url(#clip0_604_5041)"><g filter="url(#filter0_f_604_5041)"><path fill-rule="evenodd" clip-rule="evenodd" d="M893.819 1174.16C1064.04 1173.53 1091.56 1401.4 1196.08 1525.8C1297.5 1646.53 1513.63 1723.16 1480.98 1873.09C1448.25 2023.42 1226.02 2034.94 1072.61 2092.77C938.529 2143.31 805.309 2227.17 670.365 2178.63C526.066 2126.73 421.023 1994.94 404.414 1852.42C389.415 1723.73 516.873 1635.64 594.536 1528C689.103 1396.94 723.592 1174.78 893.819 1174.16Z" fill="#EC008C"></path></g><g filter="url(#filter1_f_604_5041)"><path fill-rule="evenodd" clip-rule="evenodd" d="M312.647 1597.35C461.073 1601.06 538.955 1763.12 622.467 1885.87C694.715 1992.08 767.826 2105.18 743.979 2231.4C719.173 2362.69 618.512 2460.63 501.639 2525.39C373.96 2596.15 226.713 2646.95 90.9757 2593.25C-55.2616 2535.4 -173.34 2404.71 -196.607 2249.18C-218.377 2103.65 -107.83 1985.83 -17.2391 1869.87C75.1468 1751.62 162.632 1593.6 312.647 1597.35Z" fill="#86004F"></path></g><g filter="url(#filter2_f_604_5041)"><path fill-rule="evenodd" clip-rule="evenodd" d="M1441.7 1630.35C1560.5 1607.13 1692.71 1560.89 1786.79 1637.05C1898.67 1727.62 1944.11 1880.06 1926.65 2022.94C1906.7 2186.27 1836.52 2353.01 1690.13 2428.13C1540.38 2504.97 1362.26 2465.1 1211.72 2389.82C1064.4 2316.14 898.7 2199.61 904.001 2034.98C908.943 1881.49 1109.76 1837.74 1232.46 1745.4C1299.37 1695.05 1359.51 1646.42 1441.7 1630.35Z" fill="#FABA9F"></path></g><g filter="url(#filter3_f_604_5041)"><path fill-rule="evenodd" clip-rule="evenodd" d="M866.436 2954.28C746.446 2970.25 611.669 3008.38 522.384 2926.65C416.209 2829.45 380.107 2674.54 406.208 2532.98C436.043 2371.17 516.216 2208.99 666.894 2142.9C821.033 2075.29 996.407 2125.9 1142.1 2210.18C1284.67 2292.67 1442.99 2419.04 1427.7 2583.04C1413.45 2735.95 1210.35 2767.43 1082.27 2852.15C1012.42 2898.35 949.443 2943.24 866.436 2954.28Z" fill="#FABA9F"></path></g><g filter="url(#filter4_f_604_5041)"><path fill-rule="evenodd" clip-rule="evenodd" d="M290.468 2235.96C427.041 2216.61 552.89 2298.45 649.236 2397.16C762.25 2512.95 906.922 2659.22 852.198 2811.48C798.704 2960.32 592.417 2958.14 437.026 2987.6C342.329 3005.56 258.413 2969.2 166.071 2941.58C32.6054 2901.67 -166.546 2930.33 -203.525 2796.02C-240.405 2662.07 -51.9599 2587.68 39.9464 2483.49C121.646 2390.86 168.181 2253.29 290.468 2235.96Z" fill="#EC008C"></path></g><g filter="url(#filter5_f_604_5041)"><path fill-rule="evenodd" clip-rule="evenodd" d="M1401.18 2945.62C1277.89 2859.17 1238.61 2700.06 1235.44 2549.52C1231.73 2372.92 1225.51 2148.42 1382.71 2067.86C1536.37 1989.13 1699.17 2144.74 1845.01 2237.16C1933.89 2293.48 1973.66 2385.05 2026.67 2475.95C2103.28 2607.32 2283.41 2733.02 2212.7 2867.66C2142.18 3001.95 1936.49 2920.68 1785.51 2935.18C1651.29 2948.07 1511.58 3023.02 1401.18 2945.62Z" fill="#EC008C"></path></g><g filter="url(#filter6_f_604_5041)"><path fill-rule="evenodd" clip-rule="evenodd" d="M1126.86 1712.91C1087.52 1634.7 979.707 1570.33 1014.49 1489.98C1049.33 1409.51 1167.91 1434.43 1254.2 1418.79C1331.13 1404.85 1407.01 1370.91 1476.79 1406.19C1566.33 1451.46 1652.85 1524.74 1661.45 1624.7C1670.61 1731.24 1605.7 1831.89 1518.78 1894.18C1437.45 1952.46 1326.51 1971.79 1235.7 1929.78C1158.46 1894.06 1165.1 1788.93 1126.86 1712.91Z" fill="#86004F"></path></g></g><defs><filter id="filter0_f_604_5041" x="-128.492" y="642.462" width="2144.49" height="2082.46" filterUnits="userSpaceOnUse" color-interpolation-filters="sRGB"><feGaussianBlur stdDeviation="265.846"></feGaussianBlur></filter><filter id="filter1_f_604_5041" x="-731.077" y="1065.59" width="2011.35" height="2081.77" filterUnits="userSpaceOnUse" color-interpolation-filters="sRGB"><feGaussianBlur stdDeviation="265.846"></feGaussianBlur></filter><filter id="filter2_f_604_5041" x="372.185" y="1063.38" width="2089.79" height="1937.94" filterUnits="userSpaceOnUse" color-interpolation-filters="sRGB"><feGaussianBlur stdDeviation="265.846"></feGaussianBlur></filter><filter id="filter3_f_604_5041" x="-133.627" y="1579.84" width="2094.05" height="1929.06" filterUnits="userSpaceOnUse" color-interpolation-filters="sRGB"><feGaussianBlur stdDeviation="265.846"></feGaussianBlur></filter><filter id="filter4_f_604_5041" x="-739.938" y="1701.42" width="2135.78" height="1822.67" filterUnits="userSpaceOnUse" color-interpolation-filters="sRGB"><feGaussianBlur stdDeviation="265.846"></feGaussianBlur></filter><filter id="filter5_f_604_5041" x="702.453" y="1514.63" width="2058.07" height="1997.24" filterUnits="userSpaceOnUse" color-interpolation-filters="sRGB"><feGaussianBlur stdDeviation="265.846"></feGaussianBlur></filter><filter id="filter6_f_604_5041" x="475.988" y="858.969" width="1718.02" height="1625.08" filterUnits="userSpaceOnUse" color-interpolation-filters="sRGB"><feGaussianBlur stdDeviation="265.846"></feGaussianBlur></filter><clipPath id="clip0_604_5041"><rect width="1728" height="2924.31" fill="white"></rect></clipPath></defs></svg>